<?xml version="1.0" encoding="UTF-8" standalone="no"?>
<!DOCTYPE svg PUBLIC "-//W3C//DTD SVG 1.1//EN" "http://www.w3.org/Graphics/SVG/1.1/DTD/svg11.dtd">
<svg xmlns="http://www.w3.org/2000/svg" version="1.1" viewBox="0.00 0.00 466.00 474.00">
<g stroke-width="2.00" fill="none" stroke-linecap="butt">
<path stroke="#808080" vector-effect="non-scaling-stroke" d="
  M 44.77 237.75
  C 44.77 243.64 48.05 249.80 53.18 252.92
  Q 58.65 256.26 114.29 289.76
  A 0.44 0.44 0.0 0 1 114.29 290.51
  Q 60.52 322.96 57.04 324.98
  Q 51.51 328.20 49.64 330.33
  Q 45.95 334.54 45.27 338.28
  Q 43.73 346.76 47.98 352.82
  Q 50.12 355.89 58.36 360.85
  Q 144.59 412.80 216.89 456.38
  Q 224.51 460.98 234.53 460.98
  Q 244.55 460.98 252.17 456.39
  Q 324.48 412.82 410.72 360.89
  Q 418.97 355.94 421.11 352.87
  Q 425.36 346.81 423.82 338.33
  Q 423.14 334.59 419.45 330.38
  Q 417.58 328.24 412.05 325.02
  Q 408.57 323.00 354.81 290.54
  A 0.44 0.44 0.0 0 1 354.81 289.79
  Q 410.46 256.30 415.94 252.96
  C 421.06 249.85 424.35 243.69 424.35 237.80
  C 424.35 231.91 421.06 225.75 415.94 222.63
  Q 410.46 219.29 354.82 185.79
  A 0.44 0.44 0.0 0 1 354.82 185.04
  Q 408.59 152.59 412.07 150.57
  Q 417.60 147.35 419.47 145.22
  Q 423.16 141.01 423.84 137.27
  Q 425.38 128.79 421.13 122.73
  Q 418.99 119.66 410.75 114.70
  Q 324.52 62.75 252.22 19.17
  Q 244.60 14.58 234.58 14.58
  Q 224.57 14.58 216.94 19.17
  Q 144.63 62.73 58.39 114.66
  Q 50.15 119.62 48.01 122.69
  Q 43.76 128.75 45.29 137.23
  Q 45.97 140.97 49.66 145.18
  Q 51.53 147.31 57.06 150.53
  Q 60.54 152.55 114.30 185.01
  A 0.44 0.44 0.0 0 1 114.30 185.76
  Q 58.65 219.25 53.18 222.59
  C 48.06 225.71 44.77 231.87 44.77 237.75"
/>
<path stroke="#808080" vector-effect="non-scaling-stroke" d="
  M 57.88 132.98
  Q 57.88 136.03 61.99 138.50
  Q 141.61 186.36 221.16 234.35
  Q 228.13 238.56 234.57 238.56
  Q 241.01 238.56 247.98 234.36
  Q 327.54 186.38 407.17 138.53
  Q 411.28 136.06 411.28 133.02
  Q 411.28 129.98 407.17 127.50
  Q 327.55 79.64 248.00 31.65
  Q 241.04 27.44 234.59 27.44
  Q 228.15 27.44 221.18 31.64
  Q 141.62 79.62 61.99 127.47
  Q 57.88 129.94 57.88 132.98"
/>
<path stroke="#808080" vector-effect="non-scaling-stroke" d="
  M 234.56 343.32
  Q 240.97 343.32 246.03 340.29
  Q 275.72 322.51 407.22 243.19
  Q 410.48 241.22 411.00 239.61
  Q 412.00 236.52 409.54 233.79
  A 0.83 0.78 -1.9 0 0 409.38 233.65
  L 342.69 193.46
  A 1.58 1.58 0.0 0 0 341.02 193.48
  Q 341.00 193.49 338.53 194.96
  Q 338.36 195.06 251.47 247.19
  Q 244.17 251.57 234.55 251.57
  Q 224.93 251.57 217.63 247.20
  Q 130.73 195.08 130.56 194.98
  Q 128.09 193.51 128.07 193.50
  A 1.58 1.58 0.0 0 0 126.40 193.48
  L 59.72 233.68
  A 0.83 0.78 1.9 0 0 59.56 233.82
  Q 57.10 236.55 58.10 239.64
  Q 58.62 241.25 61.88 243.22
  Q 193.39 322.52 223.08 340.29
  Q 228.15 343.33 234.56 343.32"
/>
<path stroke="#808080" vector-effect="non-scaling-stroke" d="
  M 234.51 356.27
  Q 224.97 356.27 217.11 351.63
  Q 202.81 343.20 127.85 297.98
  A 0.89 0.89 0.0 0 0 126.92 297.97
  L 59.37 338.58
  A 0.16 0.08 -63.4 0 0 59.33 338.61
  C 55.54 342.09 57.69 346.61 62.04 348.12
  A 0.03 0.02 58.3 0 1 62.06 348.13
  Q 63.63 349.08 221.11 443.92
  Q 223.43 445.31 225.07 445.87
  C 228.30 446.96 230.72 448.05 234.49 448.05
  C 238.27 448.05 240.69 446.96 243.93 445.87
  Q 245.56 445.31 247.88 443.92
  Q 405.38 349.12 406.95 348.17
  A 0.03 0.02 -58.3 0 1 406.97 348.16
  C 411.32 346.65 413.47 342.13 409.69 338.65
  A 0.16 0.08 63.4 0 0 409.65 338.62
  L 342.11 298.00
  A 0.89 0.89 0.0 0 0 341.18 298.01
  Q 266.20 343.21 251.90 351.64
  Q 244.04 356.27 234.51 356.27"
/>
</g>
<path fill="#ffffff" d="
  M 466.00 0.00
  L 466.00 474.00
  L 0.00 474.00
  L 0.00 0.00
  L 466.00 0.00
  Z
  M 44.77 237.75
  C 44.77 243.64 48.05 249.80 53.18 252.92
  Q 58.65 256.26 114.29 289.76
  A 0.44 0.44 0.0 0 1 114.29 290.51
  Q 60.52 322.96 57.04 324.98
  Q 51.51 328.20 49.64 330.33
  Q 45.95 334.54 45.27 338.28
  Q 43.73 346.76 47.98 352.82
  Q 50.12 355.89 58.36 360.85
  Q 144.59 412.80 216.89 456.38
  Q 224.51 460.98 234.53 460.98
  Q 244.55 460.98 252.17 456.39
  Q 324.48 412.82 410.72 360.89
  Q 418.97 355.94 421.11 352.87
  Q 425.36 346.81 423.82 338.33
  Q 423.14 334.59 419.45 330.38
  Q 417.58 328.24 412.05 325.02
  Q 408.57 323.00 354.81 290.54
  A 0.44 0.44 0.0 0 1 354.81 289.79
  Q 410.46 256.30 415.94 252.96
  C 421.06 249.85 424.35 243.69 424.35 237.80
  C 424.35 231.91 421.06 225.75 415.94 222.63
  Q 410.46 219.29 354.82 185.79
  A 0.44 0.44 0.0 0 1 354.82 185.04
  Q 408.59 152.59 412.07 150.57
  Q 417.60 147.35 419.47 145.22
  Q 423.16 141.01 423.84 137.27
  Q 425.38 128.79 421.13 122.73
  Q 418.99 119.66 410.75 114.70
  Q 324.52 62.75 252.22 19.17
  Q 244.60 14.58 234.58 14.58
  Q 224.57 14.58 216.94 19.17
  Q 144.63 62.73 58.39 114.66
  Q 50.15 119.62 48.01 122.69
  Q 43.76 128.75 45.29 137.23
  Q 45.97 140.97 49.66 145.18
  Q 51.53 147.31 57.06 150.53
  Q 60.54 152.55 114.30 185.01
  A 0.44 0.44 0.0 0 1 114.30 185.76
  Q 58.65 219.25 53.18 222.59
  C 48.06 225.71 44.77 231.87 44.77 237.75
  Z"
/>
<path fill="#000000" d="
  M 234.58 14.58
  Q 244.60 14.58 252.22 19.17
  Q 324.52 62.75 410.75 114.70
  Q 418.99 119.66 421.13 122.73
  Q 425.38 128.79 423.84 137.27
  Q 423.16 141.01 419.47 145.22
  Q 417.60 147.35 412.07 150.57
  Q 408.59 152.59 354.82 185.04
  A 0.44 0.44 0.0 0 0 354.82 185.79
  Q 410.46 219.29 415.94 222.63
  C 421.06 225.75 424.35 231.91 424.35 237.80
  C 424.35 243.69 421.06 249.85 415.94 252.96
  Q 410.46 256.30 354.81 289.79
  A 0.44 0.44 0.0 0 0 354.81 290.54
  Q 408.57 323.00 412.05 325.02
  Q 417.58 328.24 419.45 330.38
  Q 423.14 334.59 423.82 338.33
  Q 425.36 346.81 421.11 352.87
  Q 418.97 355.94 410.72 360.89
  Q 324.48 412.82 252.17 456.39
  Q 244.55 460.98 234.53 460.98
  Q 224.51 460.98 216.89 456.38
  Q 144.59 412.80 58.36 360.85
  Q 50.12 355.89 47.98 352.82
  Q 43.73 346.76 45.27 338.28
  Q 45.95 334.54 49.64 330.33
  Q 51.51 328.20 57.04 324.98
  Q 60.52 322.96 114.29 290.51
  A 0.44 0.44 0.0 0 0 114.29 289.76
  Q 58.65 256.26 53.18 252.92
  C 48.05 249.80 44.77 243.64 44.77 237.75
  C 44.77 231.87 48.06 225.71 53.18 222.59
  Q 58.65 219.25 114.30 185.76
  A 0.44 0.44 0.0 0 0 114.30 185.01
  Q 60.54 152.55 57.06 150.53
  Q 51.53 147.31 49.66 145.18
  Q 45.97 140.97 45.29 137.23
  Q 43.76 128.75 48.01 122.69
  Q 50.15 119.62 58.39 114.66
  Q 144.63 62.73 216.94 19.17
  Q 224.57 14.58 234.58 14.58
  Z
  M 57.88 132.98
  Q 57.88 136.03 61.99 138.50
  Q 141.61 186.36 221.16 234.35
  Q 228.13 238.56 234.57 238.56
  Q 241.01 238.56 247.98 234.36
  Q 327.54 186.38 407.17 138.53
  Q 411.28 136.06 411.28 133.02
  Q 411.28 129.98 407.17 127.50
  Q 327.55 79.64 248.00 31.65
  Q 241.04 27.44 234.59 27.44
  Q 228.15 27.44 221.18 31.64
  Q 141.62 79.62 61.99 127.47
  Q 57.88 129.94 57.88 132.98
  Z
  M 234.56 343.32
  Q 240.97 343.32 246.03 340.29
  Q 275.72 322.51 407.22 243.19
  Q 410.48 241.22 411.00 239.61
  Q 412.00 236.52 409.54 233.79
  A 0.83 0.78 -1.9 0 0 409.38 233.65
  L 342.69 193.46
  A 1.58 1.58 0.0 0 0 341.02 193.48
  Q 341.00 193.49 338.53 194.96
  Q 338.36 195.06 251.47 247.19
  Q 244.17 251.57 234.55 251.57
  Q 224.93 251.57 217.63 247.20
  Q 130.73 195.08 130.56 194.98
  Q 128.09 193.51 128.07 193.50
  A 1.58 1.58 0.0 0 0 126.40 193.48
  L 59.72 233.68
  A 0.83 0.78 1.9 0 0 59.56 233.82
  Q 57.10 236.55 58.10 239.64
  Q 58.62 241.25 61.88 243.22
  Q 193.39 322.52 223.08 340.29
  Q 228.15 343.33 234.56 343.32
  Z
  M 234.51 356.27
  Q 224.97 356.27 217.11 351.63
  Q 202.81 343.20 127.85 297.98
  A 0.89 0.89 0.0 0 0 126.92 297.97
  L 59.37 338.58
  A 0.16 0.08 -63.4 0 0 59.33 338.61
  C 55.54 342.09 57.69 346.61 62.04 348.12
  A 0.03 0.02 58.3 0 1 62.06 348.13
  Q 63.63 349.08 221.11 443.92
  Q 223.43 445.31 225.07 445.87
  C 228.30 446.96 230.72 448.05 234.49 448.05
  C 238.27 448.05 240.69 446.96 243.93 445.87
  Q 245.56 445.31 247.88 443.92
  Q 405.38 349.12 406.95 348.17
  A 0.03 0.02 -58.3 0 1 406.97 348.16
  C 411.32 346.65 413.47 342.13 409.69 338.65
  A 0.16 0.08 63.4 0 0 409.65 338.62
  L 342.11 298.00
  A 0.89 0.89 0.0 0 0 341.18 298.01
  Q 266.20 343.21 251.90 351.64
  Q 244.04 356.27 234.51 356.27
  Z"
/>
<path fill="#ffffff" d="
  M 234.59 27.44
  Q 241.04 27.44 248.00 31.65
  Q 327.55 79.64 407.17 127.50
  Q 411.28 129.98 411.28 133.02
  Q 411.28 136.06 407.17 138.53
  Q 327.54 186.38 247.98 234.36
  Q 241.01 238.56 234.57 238.56
  Q 228.13 238.56 221.16 234.35
  Q 141.61 186.36 61.99 138.50
  Q 57.88 136.03 57.88 132.98
  Q 57.88 129.94 61.99 127.47
  Q 141.62 79.62 221.18 31.64
  Q 228.15 27.44 234.59 27.44
  Z"
/>
<path fill="#ffffff" d="
  M 234.55 251.57
  Q 244.17 251.57 251.47 247.19
  Q 338.36 195.06 338.53 194.96
  Q 341.00 193.49 341.02 193.48
  A 1.58 1.58 0.0 0 1 342.69 193.46
  L 409.38 233.65
  A 0.83 0.78 -1.9 0 1 409.54 233.79
  Q 412.00 236.52 411.00 239.61
  Q 410.48 241.22 407.22 243.19
  Q 275.72 322.51 246.03 340.29
  Q 240.97 343.32 234.56 343.32
  Q 228.15 343.33 223.08 340.29
  Q 193.39 322.52 61.88 243.22
  Q 58.62 241.25 58.10 239.64
  Q 57.10 236.55 59.56 233.82
  A 0.83 0.78 1.9 0 1 59.72 233.68
  L 126.40 193.48
  A 1.58 1.58 0.0 0 1 128.07 193.50
  Q 128.09 193.51 130.56 194.98
  Q 130.73 195.08 217.63 247.20
  Q 224.93 251.57 234.55 251.57
  Z"
/>
<path fill="#ffffff" d="
  M 234.49 448.05
  C 230.72 448.05 228.30 446.96 225.07 445.87
  Q 223.43 445.31 221.11 443.92
  Q 63.63 349.08 62.06 348.13
  A 0.03 0.02 58.3 0 0 62.04 348.12
  C 57.69 346.61 55.54 342.09 59.33 338.61
  A 0.16 0.08 -63.4 0 1 59.37 338.58
  L 126.92 297.97
  A 0.89 0.89 0.0 0 1 127.85 297.98
  Q 202.81 343.20 217.11 351.63
  Q 224.97 356.27 234.51 356.27
  Q 244.04 356.27 251.90 351.64
  Q 266.20 343.21 341.18 298.01
  A 0.89 0.89 0.0 0 1 342.11 298.00
  L 409.65 338.62
  A 0.16 0.08 63.4 0 1 409.69 338.65
  C 413.47 342.13 411.32 346.65 406.97 348.16
  A 0.03 0.02 -58.3 0 0 406.95 348.17
  Q 405.38 349.12 247.88 443.92
  Q 245.56 445.31 243.93 445.87
  C 240.69 446.96 238.27 448.05 234.49 448.05
  Z"
/>
</svg>
