<?xml version="1.0" encoding="UTF-8" standalone="no"?>
<!DOCTYPE svg PUBLIC "-//W3C//DTD SVG 1.1//EN" "http://www.w3.org/Graphics/SVG/1.1/DTD/svg11.dtd">
<svg xmlns="http://www.w3.org/2000/svg" version="1.1" viewBox="0.00 0.00 448.00 442.00">
<path stroke="#838484" stroke-width="2.00" fill="none" stroke-linecap="butt" vector-effect="non-scaling-stroke" d="
  M 221.69 53.88
  A 0.61 0.61 0.0 0 1 221.08 54.48
  Q 190.46 54.60 161.10 65.12
  C 85.27 92.30 35.00 166.14 39.86 247.75
  Q 41.84 281.09 54.99 310.61
  C 79.57 365.82 130.76 406.34 190.57 416.66
  Q 217.89 421.38 244.75 418.20
  C 293.60 412.43 337.55 387.28 367.87 348.36
  C 391.04 318.63 404.84 281.49 405.99 243.34
  Q 406.48 226.88 404.90 213.50
  Q 401.13 181.74 385.04 150.98
  Q 379.34 140.08 376.08 137.19
  C 368.40 130.38 358.86 128.88 349.53 133.61
  C 340.44 138.22 336.64 148.71 338.85 158.57
  Q 339.50 161.50 343.73 168.85
  Q 358.48 194.43 361.18 224.29
  C 369.44 315.36 286.70 389.44 197.26 372.36
  Q 183.14 369.66 172.07 365.13
  C 132.44 348.92 102.45 316.86 90.36 276.13
  Q 83.05 251.49 85.31 225.11
  C 89.42 177.07 119.54 135.16 161.62 113.90
  C 180.22 104.49 200.17 99.66 220.93 99.35
  A 0.43 0.43 0.0 0 1 221.37 99.78
  Q 221.40 129.19 221.38 129.56
  Q 221.09 134.79 222.40 137.27
  C 226.16 144.40 233.84 146.24 240.58 142.07
  Q 300.05 105.28 328.90 87.13
  C 336.43 82.40 336.73 71.40 329.44 66.80
  Q 252.64 18.30 240.47 10.80
  C 234.14 6.90 226.39 9.25 222.95 15.78
  Q 221.57 18.40 221.66 24.43
  Q 221.81 34.53 221.69 53.88"
/>
<path fill="#ffffff" d="
  M 448.00 0.00
  L 448.00 442.00
  L 0.00 442.00
  L 0.00 0.00
  L 448.00 0.00
  Z
  M 221.69 53.88
  A 0.61 0.61 0.0 0 1 221.08 54.48
  Q 190.46 54.60 161.10 65.12
  C 85.27 92.30 35.00 166.14 39.86 247.75
  Q 41.84 281.09 54.99 310.61
  C 79.57 365.82 130.76 406.34 190.57 416.66
  Q 217.89 421.38 244.75 418.20
  C 293.60 412.43 337.55 387.28 367.87 348.36
  C 391.04 318.63 404.84 281.49 405.99 243.34
  Q 406.48 226.88 404.90 213.50
  Q 401.13 181.74 385.04 150.98
  Q 379.34 140.08 376.08 137.19
  C 368.40 130.38 358.86 128.88 349.53 133.61
  C 340.44 138.22 336.64 148.71 338.85 158.57
  Q 339.50 161.50 343.73 168.85
  Q 358.48 194.43 361.18 224.29
  C 369.44 315.36 286.70 389.44 197.26 372.36
  Q 183.14 369.66 172.07 365.13
  C 132.44 348.92 102.45 316.86 90.36 276.13
  Q 83.05 251.49 85.31 225.11
  C 89.42 177.07 119.54 135.16 161.62 113.90
  C 180.22 104.49 200.17 99.66 220.93 99.35
  A 0.43 0.43 0.0 0 1 221.37 99.78
  Q 221.40 129.19 221.38 129.56
  Q 221.09 134.79 222.40 137.27
  C 226.16 144.40 233.84 146.24 240.58 142.07
  Q 300.05 105.28 328.90 87.13
  C 336.43 82.40 336.73 71.40 329.44 66.80
  Q 252.64 18.30 240.47 10.80
  C 234.14 6.90 226.39 9.25 222.95 15.78
  Q 221.57 18.40 221.66 24.43
  Q 221.81 34.53 221.69 53.88
  Z"
/>
<path fill="#060808" d="
  M 221.69 53.88
  Q 221.81 34.53 221.66 24.43
  Q 221.57 18.40 222.95 15.78
  C 226.39 9.25 234.14 6.90 240.47 10.80
  Q 252.64 18.30 329.44 66.80
  C 336.73 71.40 336.43 82.40 328.90 87.13
  Q 300.05 105.28 240.58 142.07
  C 233.84 146.24 226.16 144.40 222.40 137.27
  Q 221.09 134.79 221.38 129.56
  Q 221.40 129.19 221.37 99.78
  A 0.43 0.43 0.0 0 0 220.93 99.35
  C 200.17 99.66 180.22 104.49 161.62 113.90
  C 119.54 135.16 89.42 177.07 85.31 225.11
  Q 83.05 251.49 90.36 276.13
  C 102.45 316.86 132.44 348.92 172.07 365.13
  Q 183.14 369.66 197.26 372.36
  C 286.70 389.44 369.44 315.36 361.18 224.29
  Q 358.48 194.43 343.73 168.85
  Q 339.50 161.50 338.85 158.57
  C 336.64 148.71 340.44 138.22 349.53 133.61
  C 358.86 128.88 368.40 130.38 376.08 137.19
  Q 379.34 140.08 385.04 150.98
  Q 401.13 181.74 404.90 213.50
  Q 406.48 226.88 405.99 243.34
  C 404.84 281.49 391.04 318.63 367.87 348.36
  C 337.55 387.28 293.60 412.43 244.75 418.20
  Q 217.89 421.38 190.57 416.66
  C 130.76 406.34 79.57 365.82 54.99 310.61
  Q 41.84 281.09 39.86 247.75
  C 35.00 166.14 85.27 92.30 161.10 65.12
  Q 190.46 54.60 221.08 54.48
  A 0.61 0.61 0.0 0 0 221.69 53.88
  Z"
/>
</svg>
