<?xml version="1.0" encoding="UTF-8" standalone="no"?>
<!DOCTYPE svg PUBLIC "-//W3C//DTD SVG 1.1//EN" "http://www.w3.org/Graphics/SVG/1.1/DTD/svg11.dtd">
<svg xmlns="http://www.w3.org/2000/svg" version="1.1" viewBox="0.00 0.00 368.00 342.00">
<path stroke="#808080" stroke-width="2.00" fill="none" stroke-linecap="butt" vector-effect="non-scaling-stroke" d="
  M 35.77 26.41
  Q 32.08 30.27 32.17 35.05
  Q 33.15 85.06 34.06 129.33
  C 34.19 135.70 34.86 139.81 39.84 143.16
  C 49.11 149.39 60.19 142.52 59.98 131.72
  Q 58.87 73.84 58.67 66.95
  A 0.26 0.26 0.0 0 1 59.10 66.75
  Q 59.29 66.92 181.02 183.71
  Q 302.74 300.50 302.92 300.68
  A 0.26 0.26 0.0 0 1 302.74 301.12
  Q 295.84 301.21 237.97 302.49
  C 227.17 302.73 220.76 314.08 227.37 323.09
  C 230.92 327.93 235.06 328.43 241.43 328.29
  Q 285.70 327.37 335.71 326.28
  Q 340.49 326.18 344.18 322.32
  Q 347.88 318.47 347.79 313.69
  Q 346.81 263.68 345.90 219.41
  C 345.77 213.04 345.10 208.93 340.12 205.58
  C 330.85 199.35 319.77 206.22 319.98 217.02
  Q 321.09 274.90 321.29 281.79
  A 0.26 0.26 0.0 0 1 320.85 281.99
  Q 320.67 281.82 198.94 165.03
  Q 77.22 48.24 77.04 48.06
  A 0.26 0.26 0.0 0 1 77.22 47.61
  Q 84.11 47.53 141.99 46.24
  C 152.79 46.01 159.20 34.65 152.59 25.65
  C 149.03 20.81 144.90 20.31 138.53 20.45
  Q 94.26 21.37 44.25 22.46
  Q 39.47 22.56 35.77 26.41"
/>
<path fill="#ffffff" d="
  M 368.00 0.00
  L 368.00 342.00
  L 0.00 342.00
  L 0.00 0.00
  L 368.00 0.00
  Z
  M 35.77 26.41
  Q 32.08 30.27 32.17 35.05
  Q 33.15 85.06 34.06 129.33
  C 34.19 135.70 34.86 139.81 39.84 143.16
  C 49.11 149.39 60.19 142.52 59.98 131.72
  Q 58.87 73.84 58.67 66.95
  A 0.26 0.26 0.0 0 1 59.10 66.75
  Q 59.29 66.92 181.02 183.71
  Q 302.74 300.50 302.92 300.68
  A 0.26 0.26 0.0 0 1 302.74 301.12
  Q 295.84 301.21 237.97 302.49
  C 227.17 302.73 220.76 314.08 227.37 323.09
  C 230.92 327.93 235.06 328.43 241.43 328.29
  Q 285.70 327.37 335.71 326.28
  Q 340.49 326.18 344.18 322.32
  Q 347.88 318.47 347.79 313.69
  Q 346.81 263.68 345.90 219.41
  C 345.77 213.04 345.10 208.93 340.12 205.58
  C 330.85 199.35 319.77 206.22 319.98 217.02
  Q 321.09 274.90 321.29 281.79
  A 0.26 0.26 0.0 0 1 320.85 281.99
  Q 320.67 281.82 198.94 165.03
  Q 77.22 48.24 77.04 48.06
  A 0.26 0.26 0.0 0 1 77.22 47.61
  Q 84.11 47.53 141.99 46.24
  C 152.79 46.01 159.20 34.65 152.59 25.65
  C 149.03 20.81 144.90 20.31 138.53 20.45
  Q 94.26 21.37 44.25 22.46
  Q 39.47 22.56 35.77 26.41
  Z"
/>
<path fill="#000000" d="
  M 198.94 165.03
  Q 320.67 281.82 320.85 281.99
  A 0.26 0.26 0.0 0 0 321.29 281.79
  Q 321.09 274.90 319.98 217.02
  C 319.77 206.22 330.85 199.35 340.12 205.58
  C 345.10 208.93 345.77 213.04 345.90 219.41
  Q 346.81 263.68 347.79 313.69
  Q 347.88 318.47 344.18 322.32
  Q 340.49 326.18 335.71 326.28
  Q 285.70 327.37 241.43 328.29
  C 235.06 328.43 230.92 327.93 227.37 323.09
  C 220.76 314.08 227.17 302.73 237.97 302.49
  Q 295.84 301.21 302.74 301.12
  A 0.26 0.26 0.0 0 0 302.92 300.68
  Q 302.74 300.50 181.02 183.71
  Q 59.29 66.92 59.10 66.75
  A 0.26 0.26 0.0 0 0 58.67 66.95
  Q 58.87 73.84 59.98 131.72
  C 60.19 142.52 49.11 149.39 39.84 143.16
  C 34.86 139.81 34.19 135.70 34.06 129.33
  Q 33.15 85.06 32.17 35.05
  Q 32.08 30.27 35.77 26.41
  Q 39.47 22.56 44.25 22.46
  Q 94.26 21.37 138.53 20.45
  C 144.90 20.31 149.03 20.81 152.59 25.65
  C 159.20 34.65 152.79 46.01 141.99 46.24
  Q 84.11 47.53 77.22 47.61
  A 0.26 0.26 0.0 0 0 77.04 48.06
  Q 77.22 48.24 198.94 165.03
  Z"
/>
</svg>
