<?xml version="1.0" encoding="UTF-8" standalone="no"?>
<!DOCTYPE svg PUBLIC "-//W3C//DTD SVG 1.1//EN" "http://www.w3.org/Graphics/SVG/1.1/DTD/svg11.dtd">
<svg xmlns="http://www.w3.org/2000/svg" version="1.1" viewBox="0.00 0.00 450.00 216.00">
<path stroke="#808080" stroke-width="2.00" fill="none" stroke-linecap="butt" vector-effect="non-scaling-stroke" d="
  M 7.26 109.42
  Q 7.26 114.84 10.83 118.41
  Q 42.30 149.89 77.73 185.38
  Q 81.56 189.22 83.63 190.10
  C 89.47 192.60 97.25 190.17 100.14 184.42
  Q 104.54 175.67 97.69 168.78
  Q 73.70 144.65 51.90 122.93
  A 0.37 0.36 51.4 0 1 51.96 122.37
  Q 52.13 122.25 52.49 122.28
  Q 52.86 122.31 220.92 122.33
  Q 388.98 122.34 389.35 122.31
  Q 389.71 122.28 389.88 122.40
  A 0.37 0.36 -51.4 0 1 389.94 122.96
  Q 368.14 144.68 344.14 168.80
  Q 337.29 175.69 341.69 184.44
  C 344.58 190.19 352.36 192.62 358.20 190.12
  Q 360.27 189.24 364.10 185.40
  Q 399.53 149.92 431.01 118.45
  Q 434.58 114.88 434.59 109.45
  Q 434.59 104.03 431.01 100.46
  Q 399.54 68.98 364.11 33.49
  Q 360.28 29.65 358.21 28.77
  C 352.37 26.27 344.59 28.70 341.70 34.45
  Q 337.30 43.20 344.15 50.09
  Q 368.14 74.22 389.94 95.94
  A 0.37 0.36 51.4 0 1 389.88 96.50
  Q 389.71 96.62 389.36 96.59
  Q 388.99 96.56 220.92 96.54
  Q 52.86 96.53 52.49 96.56
  Q 52.13 96.59 51.96 96.47
  A 0.37 0.36 -51.4 0 1 51.90 95.91
  Q 73.71 74.19 97.70 50.07
  Q 104.55 43.18 100.15 34.43
  C 97.26 28.68 89.48 26.25 83.64 28.75
  Q 81.57 29.63 77.74 33.47
  Q 42.31 68.95 10.83 100.42
  Q 7.26 103.99 7.26 109.42"
/>
<path fill="#ffffff" d="
  M 450.00 0.00
  L 450.00 216.00
  L 0.00 216.00
  L 0.00 0.00
  L 450.00 0.00
  Z
  M 7.26 109.42
  Q 7.26 114.84 10.83 118.41
  Q 42.30 149.89 77.73 185.38
  Q 81.56 189.22 83.63 190.10
  C 89.47 192.60 97.25 190.17 100.14 184.42
  Q 104.54 175.67 97.69 168.78
  Q 73.70 144.65 51.90 122.93
  A 0.37 0.36 51.4 0 1 51.96 122.37
  Q 52.13 122.25 52.49 122.28
  Q 52.86 122.31 220.92 122.33
  Q 388.98 122.34 389.35 122.31
  Q 389.71 122.28 389.88 122.40
  A 0.37 0.36 -51.4 0 1 389.94 122.96
  Q 368.14 144.68 344.14 168.80
  Q 337.29 175.69 341.69 184.44
  C 344.58 190.19 352.36 192.62 358.20 190.12
  Q 360.27 189.24 364.10 185.40
  Q 399.53 149.92 431.01 118.45
  Q 434.58 114.88 434.59 109.45
  Q 434.59 104.03 431.01 100.46
  Q 399.54 68.98 364.11 33.49
  Q 360.28 29.65 358.21 28.77
  C 352.37 26.27 344.59 28.70 341.70 34.45
  Q 337.30 43.20 344.15 50.09
  Q 368.14 74.22 389.94 95.94
  A 0.37 0.36 51.4 0 1 389.88 96.50
  Q 389.71 96.62 389.36 96.59
  Q 388.99 96.56 220.92 96.54
  Q 52.86 96.53 52.49 96.56
  Q 52.13 96.59 51.96 96.47
  A 0.37 0.36 -51.4 0 1 51.90 95.91
  Q 73.71 74.19 97.70 50.07
  Q 104.55 43.18 100.15 34.43
  C 97.26 28.68 89.48 26.25 83.64 28.75
  Q 81.57 29.63 77.74 33.47
  Q 42.31 68.95 10.83 100.42
  Q 7.26 103.99 7.26 109.42
  Z"
/>
<path fill="#000000" d="
  M 220.92 96.54
  Q 388.99 96.56 389.36 96.59
  Q 389.71 96.62 389.88 96.50
  A 0.37 0.36 51.4 0 0 389.94 95.94
  Q 368.14 74.22 344.15 50.09
  Q 337.30 43.20 341.70 34.45
  C 344.59 28.70 352.37 26.27 358.21 28.77
  Q 360.28 29.65 364.11 33.49
  Q 399.54 68.98 431.01 100.46
  Q 434.59 104.03 434.59 109.45
  Q 434.58 114.88 431.01 118.45
  Q 399.53 149.92 364.10 185.40
  Q 360.27 189.24 358.20 190.12
  C 352.36 192.62 344.58 190.19 341.69 184.44
  Q 337.29 175.69 344.14 168.80
  Q 368.14 144.68 389.94 122.96
  A 0.37 0.36 -51.4 0 0 389.88 122.40
  Q 389.71 122.28 389.35 122.31
  Q 388.98 122.34 220.92 122.33
  Q 52.86 122.31 52.49 122.28
  Q 52.13 122.25 51.96 122.37
  A 0.37 0.36 51.4 0 0 51.90 122.93
  Q 73.70 144.65 97.69 168.78
  Q 104.54 175.67 100.14 184.42
  C 97.25 190.17 89.47 192.60 83.63 190.10
  Q 81.56 189.22 77.73 185.38
  Q 42.30 149.89 10.83 118.41
  Q 7.26 114.84 7.26 109.42
  Q 7.26 103.99 10.83 100.42
  Q 42.31 68.95 77.74 33.47
  Q 81.57 29.63 83.64 28.75
  C 89.48 26.25 97.26 28.68 100.15 34.43
  Q 104.55 43.18 97.70 50.07
  Q 73.71 74.19 51.90 95.91
  A 0.37 0.36 -51.4 0 0 51.96 96.47
  Q 52.13 96.59 52.49 96.56
  Q 52.86 96.53 220.92 96.54
  Z"
/>
</svg>
