<?xml version="1.0" encoding="UTF-8" standalone="no"?>
<!DOCTYPE svg PUBLIC "-//W3C//DTD SVG 1.1//EN" "http://www.w3.org/Graphics/SVG/1.1/DTD/svg11.dtd">
<svg xmlns="http://www.w3.org/2000/svg" version="1.1" viewBox="0.00 0.00 270.00 452.00">
<path stroke="#808080" stroke-width="2.00" fill="none" stroke-linecap="butt" vector-effect="non-scaling-stroke" d="
  M 118.04 223.49
  Q 118.05 326.79 118.24 342.50
  Q 118.52 366.25 118.00 390.00
  Q 117.98 390.67 117.91 392.03
  A 0.42 0.41 -65.6 0 1 117.20 392.30
  Q 102.45 377.53 73.51 348.56
  Q 69.81 344.85 67.25 343.67
  C 61.17 340.85 53.40 343.84 50.76 349.49
  Q 46.66 358.27 53.55 365.25
  Q 53.91 365.62 119.11 430.82
  C 124.17 435.88 127.99 438.44 134.59 436.82
  Q 137.43 436.12 144.58 428.95
  Q 194.39 379.01 206.54 366.96
  C 211.05 362.49 213.18 359.53 212.36 353.40
  C 211.34 345.82 203.13 340.95 195.95 343.05
  Q 192.79 343.97 186.79 350.08
  Q 159.40 377.99 152.83 384.04
  Q 152.00 384.80 151.69 385.11
  Q 145.86 391.10 145.73 391.24
  Q 145.23 391.80 144.75 391.90
  A 0.59 0.59 0.0 0 1 144.04 391.32
  Q 143.82 310.73 143.81 223.49
  Q 143.81 136.25 144.03 55.65
  A 0.59 0.59 0.0 0 1 144.74 55.07
  Q 145.22 55.17 145.72 55.73
  Q 145.85 55.87 151.68 61.86
  Q 151.99 62.17 152.82 62.93
  Q 159.39 68.98 186.78 96.89
  Q 192.78 103.00 195.94 103.92
  C 203.12 106.02 211.33 101.15 212.35 93.57
  C 213.17 87.44 211.04 84.48 206.53 80.01
  Q 194.38 67.96 144.57 18.02
  Q 137.41 10.85 134.57 10.15
  C 127.97 8.53 124.15 11.09 119.10 16.15
  Q 53.90 81.36 53.54 81.73
  Q 46.65 88.71 50.75 97.49
  C 53.39 103.14 61.16 106.13 67.24 103.31
  Q 69.80 102.13 73.50 98.42
  Q 102.44 69.45 117.19 54.67
  A 0.42 0.41 65.6 0 1 117.90 54.94
  Q 117.97 56.30 117.99 56.97
  Q 118.51 80.72 118.23 104.48
  Q 118.04 120.18 118.04 223.49"
/>
<path fill="#ffffff" d="
  M 270.00 0.00
  L 270.00 452.00
  L 0.00 452.00
  L 0.00 0.00
  L 270.00 0.00
  Z
  M 118.04 223.49
  Q 118.05 326.79 118.24 342.50
  Q 118.52 366.25 118.00 390.00
  Q 117.98 390.67 117.91 392.03
  A 0.42 0.41 -65.6 0 1 117.20 392.30
  Q 102.45 377.53 73.51 348.56
  Q 69.81 344.85 67.25 343.67
  C 61.17 340.85 53.40 343.84 50.76 349.49
  Q 46.66 358.27 53.55 365.25
  Q 53.91 365.62 119.11 430.82
  C 124.17 435.88 127.99 438.44 134.59 436.82
  Q 137.43 436.12 144.58 428.95
  Q 194.39 379.01 206.54 366.96
  C 211.05 362.49 213.18 359.53 212.36 353.40
  C 211.34 345.82 203.13 340.95 195.95 343.05
  Q 192.79 343.97 186.79 350.08
  Q 159.40 377.99 152.83 384.04
  Q 152.00 384.80 151.69 385.11
  Q 145.86 391.10 145.73 391.24
  Q 145.23 391.80 144.75 391.90
  A 0.59 0.59 0.0 0 1 144.04 391.32
  Q 143.82 310.73 143.81 223.49
  Q 143.81 136.25 144.03 55.65
  A 0.59 0.59 0.0 0 1 144.74 55.07
  Q 145.22 55.17 145.72 55.73
  Q 145.85 55.87 151.68 61.86
  Q 151.99 62.17 152.82 62.93
  Q 159.39 68.98 186.78 96.89
  Q 192.78 103.00 195.94 103.92
  C 203.12 106.02 211.33 101.15 212.35 93.57
  C 213.17 87.44 211.04 84.48 206.53 80.01
  Q 194.38 67.96 144.57 18.02
  Q 137.41 10.85 134.57 10.15
  C 127.97 8.53 124.15 11.09 119.10 16.15
  Q 53.90 81.36 53.54 81.73
  Q 46.65 88.71 50.75 97.49
  C 53.39 103.14 61.16 106.13 67.24 103.31
  Q 69.80 102.13 73.50 98.42
  Q 102.44 69.45 117.19 54.67
  A 0.42 0.41 65.6 0 1 117.90 54.94
  Q 117.97 56.30 117.99 56.97
  Q 118.51 80.72 118.23 104.48
  Q 118.04 120.18 118.04 223.49
  Z"
/>
<path fill="#000000" d="
  M 143.81 223.49
  Q 143.82 310.73 144.04 391.32
  A 0.59 0.59 0.0 0 0 144.75 391.90
  Q 145.23 391.80 145.73 391.24
  Q 145.86 391.10 151.69 385.11
  Q 152.00 384.80 152.83 384.04
  Q 159.40 377.99 186.79 350.08
  Q 192.79 343.97 195.95 343.05
  C 203.13 340.95 211.34 345.82 212.36 353.40
  C 213.18 359.53 211.05 362.49 206.54 366.96
  Q 194.39 379.01 144.58 428.95
  Q 137.43 436.12 134.59 436.82
  C 127.99 438.44 124.17 435.88 119.11 430.82
  Q 53.91 365.62 53.55 365.25
  Q 46.66 358.27 50.76 349.49
  C 53.40 343.84 61.17 340.85 67.25 343.67
  Q 69.81 344.85 73.51 348.56
  Q 102.45 377.53 117.20 392.30
  A 0.42 0.41 -65.6 0 0 117.91 392.03
  Q 117.98 390.67 118.00 390.00
  Q 118.52 366.25 118.24 342.50
  Q 118.05 326.79 118.04 223.49
  Q 118.04 120.18 118.23 104.48
  Q 118.51 80.72 117.99 56.97
  Q 117.97 56.30 117.90 54.94
  A 0.42 0.41 65.6 0 0 117.19 54.67
  Q 102.44 69.45 73.50 98.42
  Q 69.80 102.13 67.24 103.31
  C 61.16 106.13 53.39 103.14 50.75 97.49
  Q 46.65 88.71 53.54 81.73
  Q 53.90 81.36 119.10 16.15
  C 124.15 11.09 127.97 8.53 134.57 10.15
  Q 137.41 10.85 144.57 18.02
  Q 194.38 67.96 206.53 80.01
  C 211.04 84.48 213.17 87.44 212.35 93.57
  C 211.33 101.15 203.12 106.02 195.94 103.92
  Q 192.78 103.00 186.78 96.89
  Q 159.39 68.98 152.82 62.93
  Q 151.99 62.17 151.68 61.86
  Q 145.85 55.87 145.72 55.73
  Q 145.22 55.17 144.74 55.07
  A 0.59 0.59 0.0 0 0 144.03 55.65
  Q 143.81 136.25 143.81 223.49
  Z"
/>
</svg>
