<?xml version="1.0" encoding="UTF-8" standalone="no"?>
<!DOCTYPE svg PUBLIC "-//W3C//DTD SVG 1.1//EN" "http://www.w3.org/Graphics/SVG/1.1/DTD/svg11.dtd">
<svg xmlns="http://www.w3.org/2000/svg" version="1.1" viewBox="0.00 0.00 446.00 450.00">
<g stroke-width="2.00" fill="none" stroke-linecap="butt">
<path stroke="#808080" vector-effect="non-scaling-stroke" d="
  M 161.61 64.69
  Q 142.22 64.77 93.04 64.69
  C 81.68 64.68 72.65 70.42 68.29 80.78
  Q 66.76 84.39 66.79 92.87
  Q 66.85 111.45 66.88 117.41
  Q 66.90 121.59 68.50 125.21
  Q 74.02 137.67 87.51 140.08
  A 0.48 0.47 -85.0 0 1 87.90 140.55
  Q 87.93 168.98 87.88 379.46
  Q 87.87 395.07 89.33 399.88
  C 92.35 409.90 100.58 418.75 111.05 421.98
  Q 114.41 423.01 119.62 423.01
  Q 245.85 422.97 323.54 423.02
  Q 330.05 423.02 333.76 421.74
  C 343.79 418.27 351.54 409.88 354.65 400.01
  Q 356.16 395.19 356.16 380.82
  Q 356.10 277.56 356.13 141.00
  A 0.44 0.44 0.0 0 1 356.49 140.57
  Q 368.18 138.22 374.22 127.98
  Q 376.31 124.45 376.31 122.49
  Q 376.39 104.44 376.34 84.58
  A 6.46 6.41 -55.5 0 0 375.95 82.43
  Q 371.49 70.44 360.05 66.10
  Q 355.47 64.36 342.29 64.69
  Q 340.32 64.73 280.84 64.74
  A 0.65 0.65 0.0 0 1 280.20 64.21
  C 276.19 42.36 262.18 24.37 241.46 16.63
  C 226.30 10.97 208.53 12.07 194.07 19.69
  Q 173.00 30.78 164.65 54.19
  C 163.54 57.29 163.04 60.93 162.37 64.07
  A 0.79 0.78 5.5 0 1 161.61 64.69"
/>
<path stroke="#808080" vector-effect="non-scaling-stroke" d="
  M 181.24 63.85
  A 0.68 0.68 0.0 0 0 181.89 64.72
  L 259.74 64.72
  A 1.17 1.17 0.0 0 0 260.86 63.20
  Q 253.47 39.18 231.70 33.30
  C 223.99 31.22 214.15 31.54 205.96 35.03
  Q 187.26 42.99 181.24 63.85"
/>
<path stroke="#808080" vector-effect="non-scaling-stroke" d="
  M 357.64 89.53
  A 5.70 5.70 0.0 0 0 351.94 83.83
  L 91.22 83.83
  A 5.70 5.70 0.0 0 0 85.52 89.53
  L 85.52 116.03
  A 5.70 5.70 0.0 0 0 91.22 121.73
  L 351.94 121.73
  A 5.70 5.70 0.0 0 0 357.64 116.03
  L 357.64 89.53"
/>
<path stroke="#808080" vector-effect="non-scaling-stroke" d="
  M 221.32 404.95
  Q 308.34 404.95 317.83 404.92
  Q 326.53 404.89 328.87 403.59
  Q 334.71 400.37 336.27 393.33
  A 0.35 0.31 -41.4 0 0 336.28 393.25
  L 336.28 141.57
  A 0.54 0.54 0.0 0 0 335.74 141.03
  Q 318.22 141.07 221.31 141.07
  Q 124.39 141.08 106.88 141.04
  A 0.54 0.54 0.0 0 0 106.33 141.58
  L 106.36 393.26
  A 0.35 0.31 41.4 0 0 106.37 393.34
  Q 107.93 400.38 113.77 403.60
  Q 116.11 404.90 124.81 404.93
  Q 134.31 404.96 221.32 404.95"
/>
<path stroke="#808080" vector-effect="non-scaling-stroke" d="
  M 166.5982 193.7143
  A 8.98 8.98 0.0 0 0 157.6026 184.7499
  L 157.3826 184.7503
  A 8.98 8.98 0.0 0 0 148.4183 193.7460
  L 148.7018 356.1857
  A 8.98 8.98 0.0 0 0 157.6974 365.1501
  L 157.9174 365.1497
  A 8.98 8.98 0.0 0 0 166.8817 356.1540
  L 166.5982 193.7143"
/>
<path stroke="#808080" vector-effect="non-scaling-stroke" d="
  M 231.45 193.85
  A 9.11 9.11 0.0 0 0 222.34 184.74
  L 222.12 184.74
  A 9.11 9.11 0.0 0 0 213.01 193.85
  L 213.01 356.05
  A 9.11 9.11 0.0 0 0 222.12 365.16
  L 222.34 365.16
  A 9.11 9.11 0.0 0 0 231.45 356.05
  L 231.45 193.85"
/>
<path stroke="#808080" vector-effect="non-scaling-stroke" d="
  M 296.04 193.81
  A 9.09 9.09 0.0 0 0 286.95 184.72
  L 286.73 184.72
  A 9.09 9.09 0.0 0 0 277.64 193.81
  L 277.64 356.03
  A 9.09 9.09 0.0 0 0 286.73 365.12
  L 286.95 365.12
  A 9.09 9.09 0.0 0 0 296.04 356.03
  L 296.04 193.81"
/>
</g>
<path fill="#ffffff" d="
  M 446.00 0.00
  L 446.00 450.00
  L 0.00 450.00
  L 0.00 0.00
  L 446.00 0.00
  Z
  M 161.61 64.69
  Q 142.22 64.77 93.04 64.69
  C 81.68 64.68 72.65 70.42 68.29 80.78
  Q 66.76 84.39 66.79 92.87
  Q 66.85 111.45 66.88 117.41
  Q 66.90 121.59 68.50 125.21
  Q 74.02 137.67 87.51 140.08
  A 0.48 0.47 -85.0 0 1 87.90 140.55
  Q 87.93 168.98 87.88 379.46
  Q 87.87 395.07 89.33 399.88
  C 92.35 409.90 100.58 418.75 111.05 421.98
  Q 114.41 423.01 119.62 423.01
  Q 245.85 422.97 323.54 423.02
  Q 330.05 423.02 333.76 421.74
  C 343.79 418.27 351.54 409.88 354.65 400.01
  Q 356.16 395.19 356.16 380.82
  Q 356.10 277.56 356.13 141.00
  A 0.44 0.44 0.0 0 1 356.49 140.57
  Q 368.18 138.22 374.22 127.98
  Q 376.31 124.45 376.31 122.49
  Q 376.39 104.44 376.34 84.58
  A 6.46 6.41 -55.5 0 0 375.95 82.43
  Q 371.49 70.44 360.05 66.10
  Q 355.47 64.36 342.29 64.69
  Q 340.32 64.73 280.84 64.74
  A 0.65 0.65 0.0 0 1 280.20 64.21
  C 276.19 42.36 262.18 24.37 241.46 16.63
  C 226.30 10.97 208.53 12.07 194.07 19.69
  Q 173.00 30.78 164.65 54.19
  C 163.54 57.29 163.04 60.93 162.37 64.07
  A 0.79 0.78 5.5 0 1 161.61 64.69
  Z"
/>
<path fill="#000000" d="
  M 162.37 64.07
  C 163.04 60.93 163.54 57.29 164.65 54.19
  Q 173.00 30.78 194.07 19.69
  C 208.53 12.07 226.30 10.97 241.46 16.63
  C 262.18 24.37 276.19 42.36 280.20 64.21
  A 0.65 0.65 0.0 0 0 280.84 64.74
  Q 340.32 64.73 342.29 64.69
  Q 355.47 64.36 360.05 66.10
  Q 371.49 70.44 375.95 82.43
  A 6.46 6.41 -55.5 0 1 376.34 84.58
  Q 376.39 104.44 376.31 122.49
  Q 376.31 124.45 374.22 127.98
  Q 368.18 138.22 356.49 140.57
  A 0.44 0.44 0.0 0 0 356.13 141.00
  Q 356.10 277.56 356.16 380.82
  Q 356.16 395.19 354.65 400.01
  C 351.54 409.88 343.79 418.27 333.76 421.74
  Q 330.05 423.02 323.54 423.02
  Q 245.85 422.97 119.62 423.01
  Q 114.41 423.01 111.05 421.98
  C 100.58 418.75 92.35 409.90 89.33 399.88
  Q 87.87 395.07 87.88 379.46
  Q 87.93 168.98 87.90 140.55
  A 0.48 0.47 -85.0 0 0 87.51 140.08
  Q 74.02 137.67 68.50 125.21
  Q 66.90 121.59 66.88 117.41
  Q 66.85 111.45 66.79 92.87
  Q 66.76 84.39 68.29 80.78
  C 72.65 70.42 81.68 64.68 93.04 64.69
  Q 142.22 64.77 161.61 64.69
  A 0.79 0.78 5.5 0 0 162.37 64.07
  Z
  M 181.24 63.85
  A 0.68 0.68 0.0 0 0 181.89 64.72
  L 259.74 64.72
  A 1.17 1.17 0.0 0 0 260.86 63.20
  Q 253.47 39.18 231.70 33.30
  C 223.99 31.22 214.15 31.54 205.96 35.03
  Q 187.26 42.99 181.24 63.85
  Z
  M 357.64 89.53
  A 5.70 5.70 0.0 0 0 351.94 83.83
  L 91.22 83.83
  A 5.70 5.70 0.0 0 0 85.52 89.53
  L 85.52 116.03
  A 5.70 5.70 0.0 0 0 91.22 121.73
  L 351.94 121.73
  A 5.70 5.70 0.0 0 0 357.64 116.03
  L 357.64 89.53
  Z
  M 221.32 404.95
  Q 308.34 404.95 317.83 404.92
  Q 326.53 404.89 328.87 403.59
  Q 334.71 400.37 336.27 393.33
  A 0.35 0.31 -41.4 0 0 336.28 393.25
  L 336.28 141.57
  A 0.54 0.54 0.0 0 0 335.74 141.03
  Q 318.22 141.07 221.31 141.07
  Q 124.39 141.08 106.88 141.04
  A 0.54 0.54 0.0 0 0 106.33 141.58
  L 106.36 393.26
  A 0.35 0.31 41.4 0 0 106.37 393.34
  Q 107.93 400.38 113.77 403.60
  Q 116.11 404.90 124.81 404.93
  Q 134.31 404.96 221.32 404.95
  Z"
/>
<path fill="#ffffff" d="
  M 181.24 63.85
  Q 187.26 42.99 205.96 35.03
  C 214.15 31.54 223.99 31.22 231.70 33.30
  Q 253.47 39.18 260.86 63.20
  A 1.17 1.17 0.0 0 1 259.74 64.72
  L 181.89 64.72
  A 0.68 0.68 0.0 0 1 181.24 63.85
  Z"
/>
<rect fill="#ffffff" x="85.52" y="83.83" width="272.12" height="37.90" rx="5.70"/>
<path fill="#ffffff" d="
  M 221.31 141.07
  Q 318.22 141.07 335.74 141.03
  A 0.54 0.54 0.0 0 1 336.28 141.57
  L 336.28 393.25
  A 0.35 0.31 -41.4 0 1 336.27 393.33
  Q 334.71 400.37 328.87 403.59
  Q 326.53 404.89 317.83 404.92
  Q 308.34 404.95 221.32 404.95
  Q 134.31 404.96 124.81 404.93
  Q 116.11 404.90 113.77 403.60
  Q 107.93 400.38 106.37 393.34
  A 0.35 0.31 41.4 0 1 106.36 393.26
  L 106.33 141.58
  A 0.54 0.54 0.0 0 1 106.88 141.04
  Q 124.39 141.08 221.31 141.07
  Z
  M 166.5982 193.7143
  A 8.98 8.98 0.0 0 0 157.6026 184.7499
  L 157.3826 184.7503
  A 8.98 8.98 0.0 0 0 148.4183 193.7460
  L 148.7018 356.1857
  A 8.98 8.98 0.0 0 0 157.6974 365.1501
  L 157.9174 365.1497
  A 8.98 8.98 0.0 0 0 166.8817 356.1540
  L 166.5982 193.7143
  Z
  M 231.45 193.85
  A 9.11 9.11 0.0 0 0 222.34 184.74
  L 222.12 184.74
  A 9.11 9.11 0.0 0 0 213.01 193.85
  L 213.01 356.05
  A 9.11 9.11 0.0 0 0 222.12 365.16
  L 222.34 365.16
  A 9.11 9.11 0.0 0 0 231.45 356.05
  L 231.45 193.85
  Z
  M 296.04 193.81
  A 9.09 9.09 0.0 0 0 286.95 184.72
  L 286.73 184.72
  A 9.09 9.09 0.0 0 0 277.64 193.81
  L 277.64 356.03
  A 9.09 9.09 0.0 0 0 286.73 365.12
  L 286.95 365.12
  A 9.09 9.09 0.0 0 0 296.04 356.03
  L 296.04 193.81
  Z"
/>
<rect fill="#000000" x="-9.09" y="-90.20" transform="translate(157.65,274.95) rotate(-0.1)" width="18.18" height="180.40" rx="8.98"/>
<rect fill="#000000" x="213.01" y="184.74" width="18.44" height="180.42" rx="9.11"/>
<rect fill="#000000" x="277.64" y="184.72" width="18.40" height="180.40" rx="9.09"/>
</svg>
